<svg xmlns="http://www.w3.org/2000/svg" viewBox="0 0 220 300" role="img" aria-label="Jivo wellness product pack">
  <defs>
    <linearGradient id="pack" x1="0" x2="1" y1="0" y2="1">
      <stop offset="0" stop-color="#f8e7a3"/>
      <stop offset="0.48" stop-color="#c5a832"/>
      <stop offset="1" stop-color="#38482f"/>
    </linearGradient>
    <linearGradient id="shine" x1="0" x2="1">
      <stop offset="0" stop-color="#ffffff" stop-opacity="0.74"/>
      <stop offset="0.45" stop-color="#ffffff" stop-opacity="0.12"/>
      <stop offset="1" stop-color="#ffffff" stop-opacity="0"/>
    </linearGradient>
    <filter id="shadow" x="-30%" y="-20%" width="160%" height="150%">
      <feDropShadow dx="0" dy="18" stdDeviation="18" flood-color="#21170c" flood-opacity="0.32"/>
    </filter>
  </defs>
  <rect width="220" height="300" rx="24" fill="none"/>
  <g filter="url(#shadow)">
    <path d="M68 22h84l17 32v210c0 13-11 24-24 24H75c-13 0-24-11-24-24V54L68 22Z" fill="url(#pack)"/>
    <path d="M74 28h72l11 22H63l11-22Z" fill="#fff7d1" opacity="0.9"/>
    <path d="M72 66h76c7 0 12 5 12 12v78c0 7-5 12-12 12H72c-7 0-12-5-12-12V78c0-7 5-12 12-12Z" fill="#fffaf0" opacity="0.94"/>
    <path d="M51 54h118v210c0 13-11 24-24 24H75c-13 0-24-11-24-24V54Z" fill="url(#shine)" opacity="0.5"/>
    <text x="110" y="112" text-anchor="middle" font-family="Arial, sans-serif" font-size="36" font-weight="700" fill="#151711">JIVO</text>
    <path d="M76 132c20 12 48 12 68 0" fill="none" stroke="#38482f" stroke-width="8" stroke-linecap="round"/>
    <text x="110" y="205" text-anchor="middle" font-family="Arial, sans-serif" font-size="16" font-weight="700" letter-spacing="2" fill="#fffaf0">WELLNESS</text>
    <text x="110" y="230" text-anchor="middle" font-family="Arial, sans-serif" font-size="20" font-weight="700" letter-spacing="2" fill="#fffaf0">RECIPE</text>
    <text x="110" y="254" text-anchor="middle" font-family="Arial, sans-serif" font-size="13" font-weight="700" letter-spacing="2" fill="#fffaf0">PRODUCT</text>
  </g>
</svg>
